# xmcd
#
# Track frame offsets: 
#        150
#        54873
#        94821
#        117294
#
# Disc length: 2625 seconds
#
# Revision: 0
# Processed by: cddbd v1.5.2PL0 Copyright (c) Steve Scherf et al.
# Submitted via: ExactAudioCopy v0.95a5
#
DISCID=290a3f04
DTITLE=Frumpy - Live
DYEAR=1972
DGENRE=Blues
TTITLE0=Keep on going
TTITLE1=Singing songs
TTITLE2=Backwater Blues
TTITLE3=Duty
EXTD=
EXTT0=
EXTT1=
EXTT2=
EXTT3=
PLAYORDER=
